#!OML:ASF E:\Mandelcareful walks\Project 1\Capture day 1\Session 1\Subject1.ASF
:FULLY-SPECIFIED
:DEGREES
276
root -16.8553 16.385 0.466576 342.124 84.192 335.972
lowerback 9.09445 1.83109 -0.97545
upperback 7.1264 2.63374 0.528547
thorax 2.23573 1.38534 0.91293
lowerneck -19.6755 2.84107 -0.261973
upperneck 34.6141 7.75941 -5.75722
head 15.8561 2.70829 -0.835167
rclavicle -2.11209e-014 3.27995e-015
rhumerus -25.8062 -3.48279 -81.1627
rradius 28.3521
rwrist -10.6759
rhand -9.65699 -30.043
rfingers 7.12502
rthumb 16.3139 -59.3768
lclavicle -2.11209e-014 3.27995e-015
lhumerus -27.4044 0.783554 87.8877
lradius 25.5866
lwrist 8.74181
lhand -21.4246 -11.9298
lfingers 7.12502
lthumb 4.96438 17.992
rfemur 18.4786 -4.07264 16.4509
rtibia 9.54166e-015
rfoot -11.9628 -4.04256
rtoes 1.45761
lfemur -35.198 12.0296 -15.8795
ltibia 40.144
lfoot -9.66746 7.73219
ltoes 6.56584
277
root -16.6711 16.3976 0.364374 341.6 84.5581 335.474
lowerback 9.09688 1.70616 -1.28214
upperback 7.27182 2.46137 0.340989
thorax 2.3879 1.29437 0.90681
lowerneck -19.6903 2.69268 -0.30025
upperneck 34.5803 7.41883 -5.47457
head 15.8061 2.59697 -0.775015
rclavicle -3.90115e-014 8.74653e-015
rhumerus -25.6171 -3.40896 -81.3633
rradius 28.1261
rwrist -10.2882
rhand -9.68806 -30.2621
rfingers 7.12502
rthumb 16.284 -59.5983
lclavicle -3.90115e-014 8.74653e-015
lhumerus -27.1269 1.13431 87.581
lradius 25.5045
lwrist 8.55533
lhand -21.2718 -11.8824
lfingers 7.12502
lthumb 5.11187 18.036
rfemur 19.1402 -4.32088 15.8369
rtibia 1.59028e-014
rfoot -10.3582 -4.22081
rtoes 0.579556
lfemur -34.6773 11.6328 -16.3169
ltibia 40.5413
lfoot -10.7424 7.42467
ltoes 6.67436
278
root -16.4892 16.4074 0.264735 340.722 84.8269 334.603
lowerback 9.3358 1.66206 -1.55359
upperback 7.19865 2.38183 0.182699
thorax 2.17955 1.24989 0.890666
lowerneck -19.5842 2.47016 -0.433576
upperneck 34.736 6.98023 -5.03495
head 15.8053 2.45884 -0.652139
rclavicle -8.64713e-015 -5.76476e-015
rhumerus -25.501 -3.51913 -81.4764
rradius 27.7812
rwrist -9.93653
rhand -9.52373 -30.6183
rfingers 7.12502
rthumb 16.4422 -59.9415
lclavicle -8.64713e-015 -5.76476e-015
lhumerus -27.1698 1.22008 87.3444
lradius 25.5244
lwrist 8.61032
lhand -21.2461 -11.8316
lfingers 7.12502
lthumb 5.13676 18.0861
rfemur 19.6868 -4.4948 15.3167
rtibia 9.22361e-014
rfoot -8.29762 -4.43899
rtoes -1.01521
lfemur -34.0756 10.958 -16.579
ltibia 40.7053
lfoot -11.8062 7.42109
ltoes 7.53941
279
root -16.3125 16.4234 0.169292 339.928 85.0821 333.788
lowerback 9.49399 1.68249 -1.90265
upperback 7.1775 2.38453 0.0818858
thorax 2.06326 1.24269 0.975531
lowerneck -19.72 2.18335 -0.623031
upperneck 34.9766 6.45758 -4.54298
head 15.9005 2.2775 -0.509185
rclavicle -1.08338e-014 9.54166e-015
rhumerus -25.4483 -3.87303 -81.4136
rradius 27.4717
rwrist -9.57516
rhand -9.25653 -30.1785
rfingers 7.12502
rthumb 16.6995 -59.4802
lclavicle -1.08338e-014 9.54166e-015
lhumerus -27.1165 1.20309 87.228
lradius 25.5555
lwrist 8.63939
lhand -21.4065 -11.7533
lfingers 7.12502
lthumb 4.98183 18.1681
rfemur 16.0662 -4.94484 14.7145
rtibia 7.90053
rfoot -9.44883 -3.54603
rtoes -3.42035
lfemur -33.3949 10.2691 -16.8552
ltibia 40.647
lfoot -12.7623 7.51161
ltoes 8.03433
280
root -16.143 16.4514 0.077475 338.973 85.3525 332.802
lowerback 9.68351 1.67965 -2.35563
upperback 7.17246 2.34782 0.0364231
thorax 1.94292 1.21164 1.17815
lowerneck -19.8776 1.95978 -0.758203
upperneck 35.1595 6.0402 -4.15585
head 15.9889 2.13293 -0.399176
rclavicle -2.76311e-014 1.98785e-014
rhumerus -25.3481 -4.13064 -81.3576
rradius 27.319
rwrist -9.52921
rhand -9.0184 -29.8927
rfingers 7.12502
rthumb 16.9287 -59.1749
lclavicle -2.76311e-014 1.98785e-014
lhumerus -27.0553 1.3063 87.1227
lradius 25.6541
lwrist 8.66554
lhand -21.5784 -11.6455
lfingers 7.12502
lthumb 4.81591 18.2798
rfemur 13.2006 -5.39004 14.1247
rtibia 14.1496
rfoot -9.37832 -2.94174
rtoes -4.2806
lfemur -32.6482 9.71748 -17.17
ltibia 40.4205
lfoot -13.4988 7.5448
ltoes 7.73526
281
root -15.9752 16.487 -0.0108148 337.225 85.8013 331.197
lowerback 9.92888 1.61057 -2.84257
upperback 7.26916 2.2266 0.015483
thorax 1.90227 1.13833 1.43308
lowerneck -19.8228 1.79341 -0.802467
upperneck 35.0794 5.69447 -3.92808
head 15.9121 2.01619 -0.362062
rclavicle 3.97569e-015 1.39149e-014
rhumerus -25.3888 -3.98665 -81.4148
rradius 27.6985
rwrist -10.1119
rhand -8.92438 -30.749
rfingers 7.12502
rthumb 17.0192 -60.0234
lclavicle 3.97569e-015 1.39149e-014
lhumerus -26.8841 1.23155 87.0767
lradius 25.7788
lwrist 8.95595
lhand -21.6154 -11.5514
lfingers 7.12502
lthumb 4.78011 18.3747
rfemur 11.0314 -6.02175 13.5019
rtibia 19.3987
rfoot -8.60365 -2.585
rtoes -3.14369
lfemur -31.6631 9.03998 -17.4912
ltibia 40.0939
lfoot -13.9735 7.52064
ltoes 7.48373
282
root -15.808 16.5227 -0.0920507 333.939 86.4107 328.156
lowerback 10.0498 1.48132 -3.36071
upperback 7.51663 2.03852 0.0324657
thorax 2.09292 1.02765 1.75823
lowerneck -19.7582 1.64368 -0.80979
upperneck 34.8208 5.37527 -3.8124
head 15.7542 1.89961 -0.374456
rclavicle -6.16232e-015 4.77083e-015
rhumerus -25.2476 -3.96374 -81.4547
rradius 28.025
rwrist -10.6119
rhand -9.09801 -30.5751
rfingers 7.12502
rthumb 16.8521 -59.8639
lclavicle -6.16232e-015 4.77083e-015
lhumerus -26.5323 1.04092 87.0715
lradius 25.9283
lwrist 9.28628
lhand -21.646 -11.2924
lfingers 7.12502
lthumb 4.75058 18.6343
rfemur 8.91359 -6.90683 12.8817
rtibia 24.8117
rfoot -7.78868 -2.49147
rtoes -2.19507
lfemur -30.5813 8.29971 -17.8209
ltibia 39.7053
lfoot -14.5709 7.4481
ltoes 7.85223
